<?xml version="1.0" standalone="no"?>
<!DOCTYPE svg PUBLIC "-//W3C//DTD SVG 20010904//EN"
 "http://www.w3.org/TR/2001/REC-SVG-20010904/DTD/svg10.dtd">
<svg version="1.0" xmlns="http://www.w3.org/2000/svg"
 width="641.000000pt" height="641.000000pt" viewBox="0 0 641.000000 641.000000"
 preserveAspectRatio="xMidYMid meet">

<g transform="translate(0.000000,641.000000) scale(0.100000,-0.100000)"
fill="#000000" stroke="none">
<path d="M2975 6404 c-797 -66 -1511 -401 -2061 -966 -476 -490 -767 -1078
-877 -1778 -18 -117 -21 -177 -21 -450 0 -277 2 -333 22 -460 110 -706 417
-1316 912 -1810 769 -768 1868 -1090 2944 -864 474 100 943 320 1326 624 135
107 393 365 500 500 450 568 689 1263 690 2003 0 643 -186 1262 -539 1785
-167 249 -432 538 -656 716 -470 374 -995 598 -1600 681 -107 15 -534 27 -640
19z m620 -593 c236 -35 470 -104 687 -201 130 -57 298 -150 298 -163 0 -8
-596 -1214 -1756 -3555 l-413 -833 42 -19 c107 -48 220 -73 348 -77 76 -3 134
-1 145 5 12 6 183 341 433 846 228 460 420 836 426 836 6 0 179 -83 384 -185
341 -169 372 -187 366 -206 -14 -42 -109 -199 -171 -282 -117 -156 -359 -377
-500 -456 -37 -21 -50 -42 -182 -308 -79 -157 -141 -287 -139 -289 7 -7 159
37 257 73 293 109 590 303 825 538 211 210 377 442 515 716 162 325 231 623
231 993 0 254 -26 449 -91 679 -33 117 -101 307 -110 307 -3 0 -75 -141 -161
-312 -154 -311 -155 -313 -148 -363 13 -90 9 -376 -6 -484 -15 -106 -45 -245
-64 -294 l-11 -27 -380 190 c-209 104 -380 192 -380 195 0 3 127 260 283 573
156 312 375 757 487 990 l204 422 69 -67 c291 -287 542 -715 656 -1118 78
-276 106 -504 98 -795 -11 -409 -91 -735 -268 -1095 -390 -795 -1157 -1340
-2039 -1450 -145 -18 -465 -20 -608 -4 -222 24 -468 85 -672 166 -128 50 -370
171 -370 184 0 8 418 857 1819 3695 187 381 341 697 341 702 0 16 -145 69
-256 92 -126 27 -422 38 -575 21 -470 -54 -949 -253 -1314 -548 -278 -224
-488 -502 -639 -844 -240 -547 -295 -1108 -160 -1644 24 -92 82 -263 107 -310
8 -16 32 24 150 260 l141 280 -3 175 c-4 242 19 416 81 610 30 95 92 244 110
267 7 9 107 -36 389 -177 208 -105 379 -192 379 -194 0 -3 -219 -451 -486
-998 -267 -546 -493 -1010 -502 -1030 -8 -21 -18 -38 -22 -38 -13 0 -212 211
-283 300 -209 260 -381 588 -473 903 -81 281 -109 500 -101 812 7 291 38 480
119 734 221 691 717 1257 1381 1576 238 115 551 206 807 234 52 6 111 13 130
15 89 10 451 -4 575 -23z m-613 -1421 c-158 -319 -293 -580 -300 -580 -15 0
-752 368 -752 376 0 12 62 93 127 165 270 301 605 501 973 582 122 27 156 33
207 36 l31 1 -286 -580z"/>
</g>
</svg>
